# xmcd
#
# Track frame offsets:
#	183
#	17933
#	46535
#	66018
#
# Disc length: 1099 seconds
# Revision: 0
# Processed by: cddbd v1.5.2PL0 Copyright (c) Steve Scherf et al.
# Submitted via: dBpowerAMP V12.0
#
DISCID=28044904
DTITLE=Bad Boys Inc. - Walking On Air
DYEAR=1993
DGENRE=Pop
TTITLE0=Walking On Air [Radio Mix]
TTITLE1=Never Ever Say Goodbye [Scorch Mix]
TTITLE2=Mystery Girl [Radio Mix]
TTITLE3=Love Ain't Something You Can Get For Free [Radio Mix]
EXTD=
EXTT0=
EXTT1=
EXTT2=
EXTT3=
PLAYORDER=
